PathFileType	4	(X/Y/Z)	C:/Users/beibeiliu/ov580/test_trc\sequence.26_training_dense_right.trc
DataRate	CameraRate	NumFrames	NumMarkers	Units	OrigDataRate	OrigDataStartFrame	OrigNumFrames
120	120	19	19	mm	120	151	400
Frame#	Time	ThumbCMC			ThumbMCP			ThumbIP			ThumbTip			IndexMCP			IndexPIP			IndexTip			MiddleMCP			MiddlePIP			MiddleTip			RingMCP			RingPIP			RingTip			PinkyMCP			PinkyPIP			PinkyTip			BackHand1			BackHand2			BackHand3	
		X0	Y0	Z0	X1	Y1	Z1	X2	Y2	Z2	X3	Y3	Z3	X4	Y4	Z4	X5	Y5	Z5	X6	Y6	Z6	X7	Y7	Z7	X8	Y8	Z8	X9	Y9	Z9	X10	Y10	Z10	X11	Y11	Z11	X12	Y12	Z12	X13	Y13	Z13	X14	Y14	Z14	X15	Y15	Z15	X16	Y16	Z16	X17	Y17	Z17	X18	Y18	Z18	
150	1.25	307.263	60.9255	39.0482	306.446	77.9419	17.3551	311.673	89.1571	0.663507	320.986	99.9349	-12.256	283.561	65.4281	-21.7289	267.298	87.5998	-14.5426	273.859	83.0785	18.8682	262.878	58.9428	-17.5624	253.713	80.3092	1.14991	272.445	65.1874	23.4635	251.525	48.2675	-13.0091	246.554	72.3036	1.72041	262.713	63.3917	20.0388	241.886	23.872	-4.69708	229.732	24.7331	-15.2247	215.379	23.2685	-31.1152	277.47	18.6999	17.5767	283.346	16.5028	43.4928	300.623	31.1696	26.8424	
151	1.25833	309.187	56.1555	38.3089	310.255	75.1288	22.2539	314.035	83.4765	0.601246	322.513	95.2031	-10.1559	286.748	63.9139	-19.3361	268.412	83.5868	-11.5294	274.873	77.8069	20.909	265.255	55.9503	-15.0555	256.843	80.5281	1.14649	274.678	67.1424	24.3897	247.53	50.902	-13.2948	247.032	72.1508	3.75726	261.043	61.485	22.1548	236.801	23.0551	-1.51974	226.23	28.0089	-16.7899	212.634	30.6048	-31.0969	275.745	17.1557	19.5406	278.143	11.1685	48.7254	299.708	27.567	28.9561	
152	1.26667	305.841	50.0093	42.0808	310.762	69.7748	26.0844	320.302	82.8861	3.56281	327.578	90.9764	-5.41101	284.845	59.4362	-16.9591	271.427	83.0603	-7.84475	276.817	75.1377	21.0744	263.795	59.194	-14.4506	261.384	79.468	4.68074	273.615	59.7111	27.063	250.955	47.4788	-10.4915	250.08	70.5128	0.0766109	264.005	60.92	22.471	238.461	25.6189	-2.20204	222.255	31.3307	-16.2338	214.762	34.467	-28.8417	270.177	11.3144	21.5222	279.387	11.8234	49.7582	299.38	24.468	32.6591	
153	1.275	307.416	45.9459	46.5111	313.014	65.2232	27.5562	322.527	77.1361	6.62566	330.472	87.922	-0.73635	288.554	61.1715	-16.7665	273.804	82.0318	-5.62623	277.733	72.1679	22.6339	269.682	53.9778	-12.7545	261.416	76.6317	8.66758	279.069	57.5238	27.2977	252.522	49.6706	-12.0685	251.202	69.5655	4.50627	262.831	56.9842	25.8161	236.607	24.7649	-2.90973	223.967	32.9347	-16.3421	215.073	39.1286	-32.6009	269.581	10.8118	20.7745	275.904	5.87119	45.5612	296.445	19.8072	34.0753	
154	1.28333	304.628	42.4535	47.1022	312.607	61.2602	28.7218	321.481	73.1349	11.0782	333.276	82.7452	1.88424	285.618	59.5606	-15.4611	275.974	81.0957	-1.72663	279.622	67.1652	24.2938	267.48	54.1598	-11.6818	261.413	75.4931	6.60214	278.42	55.0138	28.4655	252.056	45.3024	-9.87067	247.854	67.624	4.46379	264.778	57.2628	25.8143	235.037	24.1792	-0.980538	225.173	31.602	-13.99	214.336	36.3441	-28.8716	269.662	11.4071	23.3756	270.82	3.93982	48.4896	297.299	16.7343	33.0178	
155	1.29167	302.227	38.4582	48.5558	312.52	57.5004	30.3768	324.119	69.0514	12.7664	332.07	76.8998	3.04148	285.753	55.4692	-14.7854	274.958	76.4559	0.0296384	281.349	67.6931	24.2404	269.308	55.2453	-12.2401	261.561	73.9787	10.6772	277.5	51.9014	29.5309	249.552	43.9525	-8.18266	249.672	68.4247	6.35378	264.17	53.6444	27.4992	234.006	23.3901	-0.948591	222.209	33.2618	-16.4117	213.729	38.619	-32.4932	263.832	7.60004	19.5654	266.954	3.1169	48.2708	291.576	14.1419	34.8424	
156	1.3	303.495	36.2431	47.0417	309.756	54.1794	33.3021	321.728	65.1231	16.3486	333.95	72.5302	8.94647	288.602	53.9826	-14.3641	277.791	76.4145	0.55056	282.474	63.6599	24.2146	267.02	52.8714	-10.7531	266.321	74.8521	6.33769	274.81	48.9907	30.3798	252.985	48.7626	-11.6043	255.175	68.5468	7.35814	265.491	52.9171	26.9423	232.244	25.4608	-2.55785	226.509	34.4406	-17.7332	213.368	39.5697	-34.2511	262.8	8.19495	18.9736	266.218	2.89898	48.1038	289.406	9.29252	32.978	
157	1.30833	303.368	34.3591	49.8025	312.7	51.554	28.7783	325.567	61.6818	14.0735	336.745	68.7945	6.33765	288.674	48.7155	-12.6608	282.592	75.4056	-1.1946	285.095	58.9984	25.4903	269.799	54.5113	-11.3219	265.494	72.1085	11.1968	274.209	48.2013	31.3889	249.757	46.3584	-9.21112	254.445	68.6659	4.43516	261.798	54.0879	29.1401	231.1	26.2834	-3.50808	226.844	35.644	-18.0313	216.62	41.2101	-31.5747	260.908	5.66993	23.8669	265.085	-0.486491	48.7114	290.081	9.75303	33.6476	
158	1.31667	302.169	32.6725	44.8088	312.561	49.6372	33.7804	324.369	59.7243	15.96	340.684	66.5804	9.71492	288.373	49.6807	-14.1154	284.712	73.8692	-2.65383	282.735	58.2876	25.7383	268.587	50.5019	-10.6099	266.656	73.2332	9.09888	272.749	49.1878	31.9859	252.619	47.0596	-9.59582	256.477	68.2088	4.67131	267.194	51.5738	28.8928	230.453	27.8243	-3.65589	227.331	39.0119	-20.3547	216.084	45.3794	-31.3642	258.607	6.80341	19.0473	262.691	2.42033	46.6511	288.565	8.87004	33.0942	
159	1.325	302.184	30.1535	50.0801	309.009	47.2631	31.6017	322.438	56.412	19.6655	340.511	63.8761	9.58019	291.385	50.0042	-12.5292	284.631	72.3673	-2.49359	286.328	57.5644	26.7458	271.074	49.2988	-9.7548	267.914	72.2399	13.9729	273.355	51.0141	32.2478	255.951	47.3027	-8.04684	258.7	70.0078	7.8836	263.95	54.7152	30.008	234.945	29.8948	-3.13468	226.342	41.7591	-18.9539	223.249	51.193	-34.8247	254.966	7.19694	23.8536	255.352	1.97135	46.5787	281.524	5.72375	31.9184	
160	1.33333	296.837	28.9418	46.6956	313.009	46.5358	36.2726	327.688	54.664	22.7922	341.757	60.9882	13.3179	292.802	48.8758	-11.13	286.247	72.2952	-0.256198	285.264	54.6471	28.4853	273.777	54.7949	-8.85877	274.074	73.6465	13.8734	274.512	51.4771	32.6163	256.25	53.0938	-9.37414	261.98	71.2986	7.82029	265.451	53.5846	30.6655	231.751	34.917	-4.8114	230.723	45.0215	-17.7325	223.908	56.3138	-31.7445	254.859	8.39442	24.6643	252.501	2.75225	45.7116	282.701	6.79726	35.5077	
161	1.34167	297.116	27.9506	51.7895	312.004	45.5209	36.2179	327.779	53.1771	20.7219	338.572	58.4915	17.479	292.899	47.9503	-9.89837	286.62	73.0919	2.17412	286.057	54.1177	28.6579	275.556	56.237	-7.57845	271.285	75.2066	11.7037	278.376	52.6456	34.3574	255.716	54.3341	-6.95269	262.177	73.8225	10.1293	265.935	59.1155	31.1277	232.913	39.9902	-5.04809	227.384	51.5697	-16.6702	223.911	63.6472	-31.6069	255.203	11.3921	21.4273	251.733	2.8801	50.4593	279.919	5.38644	36.802	
162	1.35	295.591	26.2781	50.3693	312.258	42.995	38.943	325.118	50.4591	25.1767	337.87	56.5814	18.9046	291.899	47.4202	-7.23709	288.376	73.7396	3.54619	289.805	59.1029	29.7911	274.43	57.9232	-5.93305	277.409	77.1557	14.7354	278.921	49.227	35.6326	259.176	57.8206	-6.05643	266.047	75.9555	10.3552	267.537	55.2903	32.2793	230.023	43.1102	-1.66352	230.514	56.9189	-17.4817	228.987	71.7928	-32.0632	248.735	15.0909	19.9331	246.341	4.85774	47.5002	278.713	8.49783	33.7155	
163	1.35833	296.563	25.5678	54.3933	311.302	41.8353	37.5625	325.455	50.1203	24.0331	340.358	54.5298	20.3361	297.006	53.1202	-6.92112	292.454	73.6969	6.78509	287.121	53.6812	31.4686	277.894	56.9754	-5.63501	276.065	77.8129	16.4495	279.548	53.8022	36.2496	258.158	60.2577	-5.49905	264.299	77.8793	14.2796	265.751	59.881	34.3781	233.005	47.8688	-3.71012	233.448	60.7843	-17.103	230.602	74.9977	-33.3235	250.693	14.9734	21.6774	246.426	6.15272	45.0561	275.235	8.47601	37.9081	
164	1.36667	293.184	25.7817	52.9803	310.944	41.461	40.1524	327.863	48.0947	24.9559	338.968	52.5683	22.3623	293.591	51.2884	-6.7043	295.758	74.27	11.5922	290.696	56.3111	31.7921	279.057	60.496	-3.54704	280.927	77.1352	19.2057	277.862	49.5924	37.212	260.217	62.7826	-3.94445	266.503	77.8896	16.3117	267.014	56.9147	36.1216	232.944	49.7294	-2.78276	229.841	64.4381	-13.6329	230.511	79.053	-32.1597	247.643	16.4686	20.8669	243.621	7.79061	48.8654	273.805	9.16527	37.8991	
165	1.375	291.834	23.606	54.6328	311.267	40.0684	40.8831	331.14	45.4978	26.0935	342.985	49.2613	21.2951	297.483	50.5683	-4.08392	296.395	74.5211	13.5037	292.175	55.347	33.3846	274.387	59.3208	-2.19617	278.853	76.3877	23.2122	275.818	48.8294	38.2359	258.777	64.3441	-2.20903	270.309	77.8905	15.7625	265.988	57.527	37.6063	237.128	54.041	-5.86563	235.372	65.3853	-14.2935	230.682	81.3553	-29.6127	249.15	16.635	23.4408	242.844	10.2049	45.2768	272.951	9.25715	35.9248	
166	1.38333	292.672	23.6162	50.8529	310.576	38.4579	39.7268	328.277	43.0429	31.9892	340.629	45.9392	25.1462	294.243	52.1317	-3.48109	295.305	73.6048	15.0792	291.987	53.1204	34.7767	280.386	62.102	-0.845721	284.435	76.1905	24.5086	280.746	46.1317	38.391	261.266	63.9599	-1.08148	268.182	79.1231	21.3436	267.94	58.2146	38.7966	238.23	52.3679	-0.861772	234.543	69.0165	-12.2832	237.672	81.5514	-26.4601	250.67	20.3379	20.6153	243.61	11.6303	44.3197	272.396	7.51375	35.1745	
167	1.39167	294.518	20.8962	55.1787	310.04	35.4603	43.4554	331.443	40.2866	28.9764	342.078	44.379	27.1635	300.504	51.0706	-1.97808	300.165	72.9337	14.3443	289.823	49.6563	35.5223	282.377	59.8162	0.0193639	284.298	76.5545	23.4628	277.778	46.2862	40.7588	261.996	63.6342	0.250476	272.755	78.3628	22.9185	267.753	58.2066	40.3072	236.184	55.056	-0.0851093	238.5	68.5766	-11.7927	237.492	84.2183	-24.6293	248.925	20.9884	21.1665	241.223	9.62991	46.2314	269.851	6.44886	34.7706	
168	1.4	294.177	18.8272	58.621	308.718	34.6508	42.9995	325.774	39.1011	32.4918	341.341	41.4208	26.436	299.84	46.5842	0.350931	298.132	70.5788	17.8022	291.689	50.2226	36.5493	282.107	56.8719	0.829834	286.548	75.8838	23.8674	278.115	49.0553	41.5804	261.552	64.1313	1.00838	272.211	78.4701	25.6505	270.788	54.4639	41.023	235.56	58.5446	-1.74977	240.81	70.8927	-13.1132	237.523	83.4413	-25.1967	247.058	18.7581	22.8683	243.376	9.01775	44.2005	267.969	6.40587	38.4599	
